<?xml version="1.0" encoding="UTF-8"?>
<svg width="240px" height="340px" viewBox="0 0 240 340" version="1.1" xmlns="http://www.w3.org/2000/svg" xmlns:xlink="http://www.w3.org/1999/xlink">
    <!-- Generator: Sketch 52.6 (67491) - http://www.bohemiancoding.com/sketch -->
    <title>Artboard</title>
    <desc>Created with Sketch.</desc>
    <g id="Artboard" stroke="none" stroke-width="1" fill="none" fill-rule="evenodd">
        <g id="Group" transform="translate(120.000000, 175.000000) scale(-1, 1) translate(-120.000000, -175.000000) translate(44.000000, 10.000000)" fill-rule="nonzero" stroke-width="20">
            <rect id="Rectangle" stroke="#FFFFFF" x="25" y="120" width="100" height="200" rx="50"></rect>
            <circle id="Oval" stroke="#FFFFFF" cx="75" cy="50" r="50"></circle>
            <path d="M75,120 C93,120 106.333333,123.333333 115,130 C128,140 162,187 148,187 C134,187 50.4247233,187 40,187" id="Path-2" stroke="#50E3C2"></path>
            <path d="M4.97379915e-14,120 C18,120 31.3333333,123.333333 40,130 C53,140 70.8746428,202 70.8746428,214 C70.8746428,226 70.8746428,277 70.8746428,290" id="Path-2" stroke="#FFFFFF" transform="translate(35.437321, 205.000000) scale(-1, 1) translate(-35.437321, -205.000000) "></path>
        </g>
    </g>
</svg>