<?xml version="1.0" encoding="UTF-8"?>
<svg width="240px" height="340px" viewBox="0 0 240 340" version="1.1" xmlns="http://www.w3.org/2000/svg" xmlns:xlink="http://www.w3.org/1999/xlink">
    <!-- Generator: Sketch 52.6 (67491) - http://www.bohemiancoding.com/sketch -->
    <title>Artboard</title>
    <desc>Created with Sketch.</desc>
    <g id="Artboard" stroke="none" stroke-width="1" fill="none" fill-rule="evenodd">
        <rect id="Rectangle" stroke="#FFFFFF" stroke-width="20" fill-rule="nonzero" transform="translate(121.000000, 230.000000) scale(-1, 1) translate(-121.000000, -230.000000) " x="71" y="130" width="100" height="200" rx="50"></rect>
        <circle id="Oval" stroke="#FFFFFF" stroke-width="20" fill-rule="nonzero" transform="translate(121.000000, 60.000000) scale(-1, 1) translate(-121.000000, -60.000000) " cx="121" cy="60" r="50"></circle>
        <path d="M59.5699524,130 C78.2366191,130 91.9032858,133.333333 100.569952,140 C113.569952,150 129.569952,220 115.569952,220" id="Path-2" stroke="#3C9783" stroke-width="20" stroke-linecap="round" fill-rule="nonzero" transform="translate(90.284976, 175.000000) scale(-1, 1) translate(-90.284976, -175.000000) "></path>
        <path d="M118,130 C136.666667,130 150.333333,133.333333 159,140 C172,150 188,220 174,220" id="Path-2" stroke="#3C9783" stroke-width="20" stroke-linecap="round" fill-rule="nonzero"></path>
        <path d="M110,130 C110,143 105,167 100,177 C95,187 80,220 63,220" id="Path" stroke="#50E3C2" stroke-width="20" stroke-linecap="round" fill-rule="nonzero"></path>
        <path d="M176,130 C176,143 172,167 167,177 C162,187 147,220 130,220" id="Path" stroke="#50E3C2" stroke-width="20" stroke-linecap="round" fill-rule="nonzero" transform="translate(153.000000, 175.000000) scale(-1, 1) translate(-153.000000, -175.000000) "></path>
    </g>
</svg>